<?xml version="1.0" encoding="iso-8859-1"?>
<!-- Generator: Adobe Illustrator 19.0.0, SVG Export Plug-In . SVG Version: 6.00 Build 0)  -->
<svg version="1.1" id="Capa_1" xmlns="http://www.w3.org/2000/svg" xmlns:xlink="http://www.w3.org/1999/xlink" x="0px" y="0px"
	 viewBox="0 0 490 490" style="enable-background:new 0 0 490 490;" xml:space="preserve">
<g>
	<rect x="207.345" y="421.369" width="78.191" height="20.851"/>
	<path d="M88.327,0v490h313.346V0H88.327z M380.822,20.851v351.282H109.178V20.851H380.822z M109.178,469.149v-76.165h271.644
		v76.165H109.178z"/>
	<path d="M240.403,324.862h4.591c16.555,0,93.962-129.169,93.962-168.438c0-51.812-42.15-93.962-93.962-93.962
		c-51.812,0-93.962,42.15-93.962,93.962c0,51.049,85.41,164.111,86.275,165.058L240.403,324.862z M244.995,83.313
		c40.318,0,73.111,32.795,73.111,73.111c0,32.397-51.1,110.13-72.999,140.552c-28.223-39.341-73.224-110.609-73.224-140.552
		C171.884,116.107,204.677,83.313,244.995,83.313z"/>
	<path d="M296.665,159.509c0-28.487-23.183-51.658-51.67-51.658c-28.487,0-51.66,23.172-51.66,51.658
		c0,28.488,23.173,51.66,51.66,51.66C273.481,211.168,296.665,187.996,296.665,159.509z M244.995,190.317
		c-16.993,0-30.809-13.816-30.809-30.808c0-16.992,13.816-30.807,30.809-30.807c16.993,0,30.819,13.816,30.819,30.807
		C275.814,176.501,261.987,190.317,244.995,190.317z"/>
</g>
<g>
</g>
<g>
</g>
<g>
</g>
<g>
</g>
<g>
</g>
<g>
</g>
<g>
</g>
<g>
</g>
<g>
</g>
<g>
</g>
<g>
</g>
<g>
</g>
<g>
</g>
<g>
</g>
<g>
</g>
</svg>
