<?xml version="1.0" encoding="iso-8859-1"?>
<!-- Generator: Adobe Illustrator 16.0.0, SVG Export Plug-In . SVG Version: 6.00 Build 0)  -->
<!DOCTYPE svg PUBLIC "-//W3C//DTD SVG 1.1//EN" "http://www.w3.org/Graphics/SVG/1.1/DTD/svg11.dtd">
<svg version="1.1" id="Capa_1" xmlns="http://www.w3.org/2000/svg" xmlns:xlink="http://www.w3.org/1999/xlink" x="0px" y="0px"
	 width="198.057px" height="198.057px" viewBox="0 0 198.057 198.057" fill="white" style="enable-background:new 0 0 198.057 198.057;"
	 xml:space="preserve">
<g>
	<g>
		<g>
			<ellipse cx="158.104" cy="23.255" rx="15.416" ry="15.211"/>
			<path d="M102.39,89.422l20.343-14.655c0.521-0.374,0.916-0.892,1.144-1.49l10.988-29.07c0.907-2.404,3.311-3.534,5.767-3.534
				c8.945,0,26.334,0,35.295,0c2.169,0,4.342,0.823,5.444,2.844l16.015,29.338c0.698,1.279,0.86,2.788,0.448,4.187l-7.754,26.412
				c-0.702,2.396-2.895,3.95-5.271,3.95c-0.513,0-1.034-0.072-1.552-0.224c-2.912-0.855-4.581-3.91-3.725-6.822l6.758-22.931
				c0.244-0.828,0.148-1.719-0.265-2.477l-9.428-17.315v124.133c0,4.554-3.719,8.244-8.271,8.244c-4.554,0-8.271-3.69-8.271-8.244
				v-62.282h-3.908v62.282c0,4.554-3.72,8.244-8.271,8.244s-8.271-3.69-8.271-8.244V62.608l-6.406,17.022
				c-0.384,1.01-1.037,1.885-1.914,2.515l-22.475,16.196c-0.971,0.701-2.092,1.037-3.205,1.037c-1.705,0-3.386-0.793-4.46-2.284
				C99.366,94.631,99.928,91.196,102.39,89.422z"/>
		</g>
		<g>
			<ellipse cx="39.951" cy="23.255" rx="15.416" ry="15.211"/>
			<path d="M95.666,89.422L75.322,74.766c-0.519-0.374-0.916-0.892-1.142-1.49L63.191,44.207c-0.908-2.404-3.311-3.534-5.767-3.534
				c-8.945,0-26.334,0-35.296,0c-2.168,0-4.341,0.823-5.443,2.844L0.672,72.854c-0.699,1.279-0.861,2.788-0.449,4.187l7.754,26.412
				c0.703,2.396,2.894,3.95,5.27,3.95c0.513,0,1.035-0.072,1.551-0.225c2.913-0.854,4.582-3.908,3.726-6.82l-6.759-22.932
				c-0.244-0.828-0.149-1.719,0.264-2.477l9.43-17.314v124.133c0,4.554,3.719,8.244,8.272,8.244c4.553,0,8.271-3.69,8.271-8.244
				v-62.282h3.908v62.282c0,4.554,3.72,8.244,8.272,8.244c4.552,0,8.271-3.69,8.271-8.244V62.608L64.86,79.63
				c0.384,1.01,1.038,1.885,1.914,2.515l22.474,16.196c0.971,0.701,2.092,1.037,3.205,1.037c1.705,0,3.386-0.793,4.46-2.284
				C98.688,94.631,98.127,91.196,95.666,89.422z"/>
		</g>
	</g>
</g>
<g>
</g>
<g>
</g>
<g>
</g>
<g>
</g>
<g>
</g>
<g>
</g>
<g>
</g>
<g>
</g>
<g>
</g>
<g>
</g>
<g>
</g>
<g>
</g>
<g>
</g>
<g>
</g>
<g>
</g>
</svg>
